<?xml version="1.0" encoding="utf-8"?>
<!-- Generator: Adobe Illustrator 26.0.3, SVG Export Plug-In . SVG Version: 6.00 Build 0)  -->
<svg version="1.1"
	 id="svg4" xmlns:cc="http://creativecommons.org/ns#" xmlns:dc="http://purl.org/dc/elements/1.1/" xmlns:inkscape="http://www.inkscape.org/namespaces/inkscape" xmlns:rdf="http://www.w3.org/1999/02/22-rdf-syntax-ns#" xmlns:sodipodi="http://sodipodi.sourceforge.net/DTD/sodipodi-0.dtd" xmlns:svg="http://www.w3.org/2000/svg"
	 xmlns="http://www.w3.org/2000/svg" xmlns:xlink="http://www.w3.org/1999/xlink" x="0px" y="0px" viewBox="0 0 700 700"
	 style="enable-background:new 0 0 700 700;" xml:space="preserve">
<style type="text/css">
	.st0{fill:#FFFFFF;}
</style>
<sodipodi:namedview  bordercolor="#666666" borderopacity="1" gridtolerance="10" guidetolerance="10" id="namedview6" inkscape:current-layer="svg4" inkscape:cx="334.32018" inkscape:cy="266.24036" inkscape:pageopacity="0" inkscape:pageshadow="2" inkscape:window-height="838" inkscape:window-maximized="1" inkscape:window-width="1600" inkscape:window-x="-8" inkscape:window-y="-8" inkscape:zoom="0.70710678" objecttolerance="10" pagecolor="#ffffff" showgrid="false">
	</sodipodi:namedview>
<path id="path2-9" inkscape:connector-curvature="0" inkscape:export-filename="C:\Users\alex\sites\valorant-logo-5.png" inkscape:export-xdpi="68.464676" inkscape:export-ydpi="68.464676" class="st0" d="
	M479.4,164.6c-0.5,0-1.1,0.2-1.5,0.7L359.3,313.5c-0.6,0.8-0.5,1.9,0.3,2.5c0.3,0.3,0.7,0.4,1.1,0.4h85.7c2.3,0,4.5-1,5.9-2.9
	l27.1-33.8c1.1-1.4,1.7-3,1.7-4.8V166.4C481.1,165.3,480.3,164.6,479.4,164.6L479.4,164.6z M203.6,164.6c-0.9,0-1.7,0.7-1.7,1.8V275
	c0,1.7,0.6,3.4,1.7,4.8l89.1,111.4c1.4,1.8,3.6,2.9,5.9,2.9h85.7c1.5,0,2.3-1.7,1.4-2.9L205.1,165.3
	C204.7,164.8,204.1,164.6,203.6,164.6L203.6,164.6z"/>
<path id="path2-5" inkscape:connector-curvature="0" inkscape:export-filename="C:\Users\alex\sites\valorant-logo-5.png" inkscape:export-xdpi="68.464676" inkscape:export-ydpi="68.464676" class="st0" d="
	M569.9,470.6H590l0.1,61.5c0,0.8,0.6,1.4,1.4,1.4l11.5,0c0.8,0,1.4-0.6,1.4-1.4l-0.1-61.5h25.2c0.7,0,1.2-0.9,0.7-1.4l-8.6-10.8
	c-0.7-0.9-1.8-1.4-3-1.4h-48.7c-0.8,0-1.4,0.6-1.4,1.4v10.8C568.5,469.9,569.1,470.6,569.9,470.6 M85.2,532.1l58.9-73.7
	c0.5-0.6,0-1.4-0.7-1.4h-14.7c-1.2,0-2.3,0.5-3,1.4l-41.8,52.3v-52.3c0-0.8-0.6-1.4-1.4-1.4H71c-0.8,0-1.4,0.6-1.4,1.4v73.7
	c0,0.8,0.6,1.4,1.4,1.4h11.2C83.4,533.5,84.5,533,85.2,532.1 M126.8,532.1l20.3-25.4l20.3,25.4c0.7,0.9,1.8,1.4,3,1.4h11.2
	c0.8,0,1.4-0.6,1.4-1.4v-73.7c0-0.8-0.6-1.4-1.4-1.4h-9.4c-2.3,0-4.5,1-5.9,2.9l-57.8,72.3c-0.5,0.6,0,1.4,0.7,1.4h14.7
	C124.9,533.5,126,533,126.8,532.1 M168.6,478.2v34l-13.6-17L168.6,478.2z M497.5,532.1l-58.9-73.7c-0.7-0.9-1.8-1.4-3-1.4h-11.3
	c-0.8,0-1.4,0.6-1.4,1.4v73.7c0,0.8,0.6,1.4,1.4,1.4h11.2c1.2,0,2.3-0.5,3-1.4l20.3-25.4l20.3,25.4c0.7,0.9,1.8,1.4,3,1.4h14.7
	C497.5,533.5,497.9,532.6,497.5,532.1 M450.8,495.2l-13.6,17v-34L450.8,495.2z M288.7,455c-22.2,0-40.2,18-40.2,40.2
	s18,40.2,40.2,40.2s40.2-18,40.2-40.2C329,473,310.9,455,288.7,455 M288.7,521.8c-14.3,0-25.8-11.9-25.8-26.5s11.6-26.5,25.8-26.5
	s25.8,11.9,25.8,26.5C314.6,509.9,303,521.8,288.7,521.8 M544.1,458.4v52.3l-41.8-52.3c-0.7-0.9-1.8-1.4-3-1.4h-11.3
	c-0.8,0-1.4,0.6-1.4,1.4v35.5c0,0.9,0.3,1.7,0.8,2.4l12,15c0.5,0.7,1.6,0.3,1.6-0.6v-30.9l41.8,52.3c0.7,0.9,1.8,1.4,3,1.4H557
	c0.8,0,1.4-0.6,1.4-1.4v-73.7c0-0.8-0.6-1.4-1.4-1.4h-11.5C544.7,456.9,544.1,457.6,544.1,458.4 M403.6,474.3v-16
	c0-0.8-0.6-1.4-1.4-1.4h-58.9c-0.8,0-1.4,0.6-1.4,1.4v73.7c0,0.8,0.6,1.4,1.4,1.4h11.5c0.8,0,1.4-0.6,1.4-1.4v-61.5h33l-22.3,27.9
	c-0.4,0.5-0.4,1.3,0,1.8l25.4,31.8c0.7,0.9,1.8,1.4,3,1.4h14.7c0.7,0,1.2-0.9,0.7-1.4l-26.1-32.7l18.1-22.6
	C403.3,476,403.6,475.2,403.6,474.3 M201.7,533.5h34.1c1.2,0,2.3-0.5,3-1.4l8.6-10.8c0.5-0.6,0-1.4-0.7-1.4h-32.1v-61.5
	c0-0.8-0.6-1.4-1.4-1.4h-11.5c-0.8,0-1.4,0.6-1.4,1.4v73.7C200.2,532.9,200.9,533.5,201.7,533.5"/>
</svg>
